<?xml version="1.0" standalone="no"?>
<svg xmlns="http://www.w3.org/2000/svg" viewBox="0 0 151.7 29.001" width="151.7" height="29.001"><path fill="#ffffff" fill-rule="nonzero" d="M0 18.20L0 18.20Q0 17.55 0.08 17.01Q0.15 16.46 0.30 15.83L0.30 15.83L2.66 15.83L2.66 16.80Q2.66 17.61 2.76 18.23Q2.86 18.86 3.09 19.28Q3.32 19.71 3.70 19.93Q4.08 20.14 4.63 20.14L4.63 20.14Q5.50 20.14 5.95 19.67Q6.41 19.20 6.41 18.28L6.41 18.28Q6.41 17.81 6.35 17.42Q6.28 17.03 6.12 16.64Q5.96 16.25 5.70 15.83Q5.43 15.40 5.00 14.87L5.00 14.87L1.84 11.11Q1.00 10.03 0.54 8.94Q0.08 7.84 0.08 6.60L0.08 6.60Q0.08 5.60 0.39 4.77Q0.70 3.94 1.29 3.33Q1.88 2.73 2.74 2.40Q3.60 2.06 4.69 2.06L4.69 2.06Q6.01 2.06 6.90 2.44Q7.78 2.81 8.31 3.42Q8.84 4.03 9.05 4.79Q9.27 5.54 9.27 6.30L9.27 6.30Q9.27 6.95 9.17 7.49Q9.07 8.04 8.94 8.70L8.94 8.70L6.60 8.70L6.60 7.75Q6.60 6.15 6.14 5.30Q5.68 4.45 4.65 4.45L4.65 4.45Q3.80 4.45 3.38 4.93Q2.95 5.40 2.95 6.20L2.95 6.20Q2.95 6.62 3.02 6.96Q3.08 7.30 3.21 7.59Q3.33 7.88 3.50 8.14Q3.68 8.41 3.90 8.71L3.90 8.71L7.43 12.97Q8.39 14.23 8.91 15.38Q9.42 16.54 9.42 17.82L9.42 17.82Q9.42 18.89 9.09 19.75Q8.75 20.60 8.13 21.20Q7.51 21.80 6.63 22.12Q5.75 22.44 4.65 22.44L4.65 22.44Q3.29 22.44 2.40 22.08Q1.50 21.71 0.97 21.12Q0.43 20.52 0.22 19.76Q0 19.00 0 18.20ZM14.66 21.19L14.75 23.17L14.75 27.47L11.79 27.47L11.79 6.12L14.11 6.12L14.38 7.82Q14.58 7.49 14.85 7.15Q15.13 6.81 15.50 6.54Q15.87 6.28 16.33 6.11Q16.79 5.94 17.37 5.94L17.37 5.94Q17.61 5.94 17.96 5.99Q18.30 6.04 18.67 6.22Q19.04 6.41 19.41 6.78Q19.78 7.15 20.07 7.79Q20.36 8.44 20.54 9.40Q20.72 10.36 20.72 11.73L20.72 11.73L20.72 16.62Q20.72 17.99 20.54 18.95Q20.36 19.91 20.06 20.55Q19.77 21.20 19.39 21.57Q19.02 21.95 18.63 22.14Q18.25 22.32 17.88 22.38Q17.52 22.43 17.25 22.43L17.25 22.43Q16.31 22.43 15.69 22.07Q15.06 21.70 14.66 21.19L14.66 21.19ZM14.75 9.21L14.75 18.96Q14.85 19.20 14.98 19.41Q15.12 19.62 15.30 19.78Q15.48 19.95 15.71 20.04Q15.94 20.14 16.24 20.14L16.24 20.14Q16.57 20.14 16.84 20.02Q17.11 19.90 17.31 19.58Q17.51 19.25 17.62 18.68Q17.73 18.11 17.73 17.20L17.73 17.20L17.73 11.03Q17.73 10.13 17.62 9.56Q17.51 8.99 17.31 8.66Q17.12 8.33 16.85 8.21Q16.58 8.10 16.25 8.10L16.25 8.10Q15.69 8.10 15.33 8.43Q14.98 8.77 14.75 9.21L14.75 9.21ZM25.62 22.43L25.62 22.43Q24.87 22.43 24.29 22.13Q23.71 21.83 23.31 21.32Q22.91 20.80 22.71 20.09Q22.50 19.38 22.50 18.55L22.50 18.55Q22.50 17.55 22.75 16.78Q22.99 16.01 23.47 15.39Q23.94 14.77 24.64 14.26Q25.35 13.75 26.27 13.29L26.27 13.29Q26.72 13.07 27.28 12.84Q27.83 12.61 28.27 12.45L28.27 12.45L28.27 10.31Q28.27 9.84 28.23 9.44Q28.20 9.04 28.06 8.74Q27.93 8.44 27.66 8.27Q27.39 8.10 26.92 8.10L26.92 8.10Q26.60 8.10 26.30 8.21Q26.00 8.33 25.78 8.61Q25.55 8.89 25.41 9.36Q25.28 9.83 25.28 10.52L25.28 10.52L25.28 11.23L23.02 11.23Q22.91 10.77 22.86 10.39Q22.80 10.01 22.80 9.63L22.80 9.63Q22.80 8.73 23.12 8.04Q23.43 7.35 23.98 6.88Q24.54 6.41 25.31 6.17Q26.09 5.93 27.01 5.93L27.01 5.93Q28.22 5.93 29.02 6.19Q29.81 6.46 30.29 6.98Q30.76 7.51 30.96 8.31Q31.15 9.11 31.15 10.17L31.15 10.17L31.15 22.25L28.95 22.25L28.73 20.87Q28.25 21.56 27.45 22.00Q26.65 22.43 25.62 22.43ZM26.93 20.14L26.93 20.14Q27.30 20.14 27.66 19.95Q28.02 19.76 28.27 19.48L28.27 19.48L28.27 14.43Q28.03 14.52 27.74 14.65Q27.45 14.78 27.11 14.99L27.11 14.99Q26.79 15.19 26.48 15.47Q26.18 15.75 25.94 16.14Q25.70 16.52 25.55 17.01Q25.41 17.50 25.41 18.09L25.41 18.09Q25.41 19.02 25.77 19.58Q26.13 20.14 26.93 20.14ZM37.98 22.43L37.98 22.43Q35.94 22.43 34.87 20.75Q33.80 19.08 33.80 15.64L33.80 15.64L33.80 12.60Q33.80 11.06 34.02 9.97Q34.24 8.87 34.61 8.13Q34.98 7.38 35.46 6.95Q35.93 6.52 36.43 6.29Q36.94 6.06 37.43 5.99Q37.92 5.93 38.33 5.93L38.33 5.93Q39.15 5.93 39.83 6.15Q40.51 6.36 41.00 6.80Q41.50 7.24 41.77 7.91Q42.04 8.58 42.04 9.48L42.04 9.48Q42.04 10.04 41.98 10.45Q41.93 10.85 41.84 11.23L41.84 11.23L39.47 11.23L39.47 10.69Q39.47 9.47 39.18 8.78Q38.89 8.10 38.24 8.10L38.24 8.10Q37.88 8.10 37.61 8.27Q37.34 8.44 37.15 8.85Q36.97 9.26 36.88 9.95Q36.80 10.64 36.80 11.68L36.80 11.68L36.80 16.27Q36.80 17.32 36.87 18.06Q36.94 18.80 37.11 19.26Q37.29 19.72 37.58 19.93Q37.88 20.14 38.31 20.14L38.31 20.14Q38.53 20.14 38.74 20.03Q38.95 19.92 39.11 19.66Q39.27 19.41 39.37 18.98Q39.47 18.55 39.47 17.92L39.47 17.92L39.47 17.41L42.02 17.41L42.02 18.04Q42.02 20.33 41.01 21.38Q40.00 22.43 37.98 22.43ZM48.32 22.43L48.32 22.43Q47.27 22.43 46.47 22.04Q45.67 21.66 45.12 20.84Q44.57 20.02 44.29 18.73Q44.00 17.45 44.00 15.64L44.00 15.64L44.00 12.60Q44.00 11.06 44.23 9.97Q44.46 8.87 44.83 8.13Q45.20 7.38 45.69 6.95Q46.17 6.52 46.69 6.29Q47.20 6.06 47.71 5.99Q48.22 5.93 48.66 5.93L48.66 5.93Q49.45 5.93 50.19 6.17Q50.93 6.41 51.49 6.99Q52.05 7.57 52.39 8.54Q52.72 9.52 52.72 10.97L52.72 10.97Q52.72 11.46 52.69 11.96Q52.66 12.47 52.62 12.96Q52.57 13.44 52.49 13.90Q52.42 14.36 52.34 14.74L52.34 14.74L46.98 14.74L46.98 16.38Q46.98 17.44 47.06 18.16Q47.14 18.88 47.34 19.32Q47.53 19.76 47.87 19.95Q48.20 20.14 48.70 20.14L48.70 20.14Q48.97 20.14 49.23 20.03Q49.49 19.92 49.68 19.66Q49.88 19.41 49.99 18.98Q50.11 18.55 50.11 17.92L50.11 17.92L50.11 17.41L52.58 17.41L52.58 18.04Q52.58 20.33 51.49 21.38Q50.39 22.43 48.32 22.43ZM46.98 12.75L49.96 12.75Q49.97 12.62 49.98 12.40Q49.99 12.19 50.00 11.95Q50.00 11.72 50.00 11.49Q50.00 11.26 50.00 11.10L50.00 11.10Q50.00 9.50 49.63 8.80Q49.25 8.10 48.52 8.10L48.52 8.10Q48.13 8.10 47.84 8.28Q47.54 8.46 47.36 8.89Q47.17 9.32 47.07 10.02Q46.98 10.72 46.98 11.77L46.98 11.77L46.98 12.75ZM55.42 22.25L55.42 2.24L59.38 2.24L61.30 9.98Q61.61 11.27 61.78 12.44Q61.96 13.61 62.12 14.64L62.12 14.64L62.21 14.64Q62.38 13.61 62.55 12.44Q62.73 11.27 63.04 9.98L63.04 9.98L65.02 2.24L68.89 2.24L68.89 22.25L66.06 22.25L66.06 15.63Q66.06 14.11 66.09 12.70Q66.12 11.30 66.16 10.12Q66.21 8.94 66.27 8.04Q66.33 7.14 66.38 6.61L66.38 6.61L66.15 6.61L63.13 19.68L61.21 19.68L58.16 6.61L57.94 6.61Q57.98 7.14 58.04 8.04Q58.10 8.94 58.15 10.12Q58.20 11.30 58.22 12.70Q58.25 14.11 58.25 15.63L58.25 15.63L58.25 22.25L55.42 22.25ZM76.20 22.43L76.20 22.43Q75.68 22.43 75.15 22.35Q74.61 22.27 74.12 22.01Q73.62 21.75 73.18 21.27Q72.74 20.79 72.41 20.00Q72.08 19.22 71.89 18.07Q71.71 16.92 71.71 15.33L71.71 15.33L71.71 12.80Q71.71 11.23 71.90 10.11Q72.09 8.99 72.43 8.23Q72.76 7.46 73.21 7.01Q73.65 6.56 74.15 6.32Q74.65 6.08 75.18 6.01Q75.70 5.93 76.21 5.93L76.21 5.93Q76.69 5.93 77.20 6Q77.72 6.07 78.21 6.30Q78.70 6.53 79.14 6.98Q79.58 7.43 79.92 8.19Q80.25 8.95 80.44 10.08Q80.64 11.21 80.64 12.80L80.64 12.80L80.64 15.33Q80.64 16.90 80.44 18.04Q80.24 19.17 79.90 19.96Q79.56 20.74 79.11 21.23Q78.67 21.71 78.18 21.98Q77.68 22.25 77.17 22.34Q76.66 22.43 76.20 22.43ZM76.22 20.14L76.22 20.14Q76.62 20.14 76.89 19.94Q77.17 19.73 77.34 19.27Q77.51 18.80 77.58 18.03Q77.66 17.26 77.66 16.13L77.66 16.13L77.66 12.15Q77.66 11.02 77.58 10.24Q77.51 9.47 77.34 8.99Q77.17 8.52 76.89 8.31Q76.62 8.10 76.22 8.10L76.22 8.10Q75.80 8.10 75.51 8.31Q75.22 8.52 75.04 8.99Q74.85 9.47 74.77 10.24Q74.68 11.02 74.68 12.15L74.68 12.15L74.68 16.13Q74.68 17.26 74.77 18.03Q74.85 18.80 75.04 19.27Q75.22 19.73 75.51 19.94Q75.80 20.14 76.22 20.14ZM85.56 22.25L81.93 6.12L84.88 6.12L86.44 14.70L86.82 18.13L86.92 18.13L87.36 14.70L88.91 6.12L91.77 6.12L88.09 22.25L85.56 22.25ZM95.09 3.81L95.09 3.81Q94.27 3.81 93.79 3.32Q93.32 2.82 93.32 1.88L93.32 1.88Q93.32 1.35 93.44 0.99Q93.56 0.63 93.79 0.42Q94.02 0.20 94.35 0.10Q94.68 0 95.10 0L95.10 0Q95.98 0 96.43 0.45Q96.89 0.89 96.89 1.88L96.89 1.88Q96.89 2.79 96.43 3.30Q95.96 3.81 95.09 3.81ZM93.55 22.25L93.55 6.12L96.52 6.12L96.52 22.25L93.55 22.25ZM103.50 22.43L103.50 22.43Q102.46 22.43 101.65 22.04Q100.85 21.66 100.30 20.84Q99.75 20.02 99.47 18.73Q99.19 17.45 99.19 15.64L99.19 15.64L99.19 12.60Q99.19 11.06 99.42 9.97Q99.64 8.87 100.01 8.13Q100.38 7.38 100.87 6.95Q101.36 6.52 101.87 6.29Q102.39 6.06 102.90 5.99Q103.41 5.93 103.84 5.93L103.84 5.93Q104.64 5.93 105.38 6.17Q106.11 6.41 106.68 6.99Q107.24 7.57 107.57 8.54Q107.91 9.52 107.91 10.97L107.91 10.97Q107.91 11.46 107.88 11.96Q107.85 12.47 107.80 12.96Q107.75 13.44 107.68 13.90Q107.60 14.36 107.52 14.74L107.52 14.74L102.16 14.74L102.16 16.38Q102.16 17.44 102.25 18.16Q102.33 18.88 102.52 19.32Q102.71 19.76 103.05 19.95Q103.38 20.14 103.89 20.14L103.89 20.14Q104.16 20.14 104.41 20.03Q104.67 19.92 104.87 19.66Q105.06 19.41 105.18 18.98Q105.29 18.55 105.29 17.92L105.29 17.92L105.29 17.41L107.77 17.41L107.77 18.04Q107.77 20.33 106.67 21.38Q105.57 22.43 103.50 22.43ZM102.16 12.75L105.14 12.75Q105.15 12.62 105.16 12.40Q105.18 12.19 105.18 11.95Q105.19 11.72 105.19 11.49Q105.19 11.26 105.19 11.10L105.19 11.10Q105.19 9.50 104.81 8.80Q104.44 8.10 103.70 8.10L103.70 8.10Q103.31 8.10 103.02 8.28Q102.73 8.46 102.54 8.89Q102.35 9.32 102.26 10.02Q102.16 10.72 102.16 11.77L102.16 11.77L102.16 12.75Z" transform="translate(0, 0.766)"></path><line x1="116.90625" y1="2%" x2="116.90625" y2="98%" stroke="#ffffff" stroke-linecap="round"></line><g fill="#ead017" color="#ead017" transform="translate(125.90625 0) scale(0.5370371)"><svg width="48.0" height="54.0" x="0.0" y="0.0" viewBox="0 0 48 54"><path fill="currentColor" fill-rule="evenodd" d="M45.692 20.235c-.178.534-.593 1.484-.712 1.662-.06.06-.178.178-.356 0-.534-.594-1.246-1.306-1.78-1.9-.119-.118-.178-.355-.06-.533.238-.475.475-1.128.653-1.602 0 0 0-.06.06-.06 0 0 .118-.178.296 0 2.018 2.196 2.018 2.196 1.9 2.433m-1.484 3.205l-.475.771c-.771 1.246-.771 1.246-1.068 1.068-.534-.593-1.246-1.305-1.78-1.899-.119-.118-.119-.356 0-.534.178-.296.415-.653.593-1.009.594-1.068.594-1.068.83-.83.594.652 1.247 1.246 1.781 1.899.178.118.237.296.119.534m-2.196 3.382c-.297.356-.653.83-.95 1.187-.652.771-.711.83-.949.593-.534-.593-1.246-1.305-1.78-1.899-.119-.118-.119-.356.06-.534l.474-.593c1.187-1.424 1.187-1.424 1.365-1.246.593.652 1.246 1.187 1.78 1.899.06.178.119.356 0 .593m-2.908 3.264c-2.076 1.899-2.076 1.899-2.373 1.661-.534-.593-1.246-1.305-1.78-1.899-.119-.178-.119-.356.059-.474.534-.475 1.305-1.068 1.78-1.603l.119-.118s.237-.178.475 0c.593.653 1.246 1.187 1.78 1.899.06.118.119.296-.06.534m-3.145 2.61l-.712.475c-1.008.713-1.008.713-1.246.475-.534-.593-1.246-1.305-1.72-1.899-.12-.118-.12-.296.059-.415l.771-.534c.89-.653.89-.653 1.128-.416.593.653 1.246 1.247 1.78 1.9 0 .059.118.237-.06.415m-2.907 1.958l-1.068.653c-.89.534-.89.593-1.128.356-.534-.594-1.246-1.306-1.72-1.9-.12-.118-.12-.296.059-.414l.593-.416c1.306-.83 1.306-.83 1.543-.593.593.652 1.246 1.246 1.78 1.958 0 0 .178.178-.06.356m-3.144 2.018c-.594.415-1.128.89-1.78 1.186 0 0-.238.12-.475-.059-.534-.593-1.246-1.305-1.721-1.899-.119-.119-.119-.297.06-.415 1.957-1.306 1.957-1.306 2.254-1.068.594.652 1.246 1.246 1.78 1.958-.059-.06.12.119-.118.297m-3.264 2.255l-.771.593c-1.187.89-1.187.89-1.425.653-.534-.594-1.246-1.306-1.72-1.9-.12-.177-.12-.355.059-.474l.89-.712c1.009-.771 1.009-.771 1.246-.534.593.653 1.246 1.246 1.78 1.958.119.06.119.238-.059.416m-3.145 2.432l-1.009.95c-.712.712-.771.712-.95.534-.533-.593-1.245-1.305-1.72-1.899-.119-.178-.119-.356 0-.475l.534-.474c1.246-1.187 1.246-1.187 1.543-.95.593.653 1.246 1.246 1.78 1.958 0 .06 0 .238-.178.356m-2.79 2.849c-.414.475-.949 1.127-1.305 1.661l-.059.06s-.178.178-.356 0c-.534-.594-1.246-1.365-1.72-1.9a.445.445 0 0 1 0-.533c1.483-1.958 1.483-1.958 1.72-1.662.593.653 1.246 1.246 1.78 1.958 0-.059.119.178-.06.416m-2.313 3.204l-.95 1.9s0 .058-.06.058c-.059.06-.177.179-.296 0-.534-.593-1.246-1.364-1.72-1.898-.12-.178-.179-.356-.06-.594.83-1.72.83-1.72.95-1.958.059-.06.177-.178.355-.06.594.653 1.247 1.247 1.78 1.959 0 .119.179.297 0 .593M14.124 22.55s-.237.118-.415-.06c-.534-.534-1.187-1.305-1.721-1.899-.119-.118-.06-.296.06-.415 1.957-1.306 1.957-1.306 2.195-1.068.593.652 1.246 1.187 1.72 1.899 0 0 .179.237-.059.415-.593.356-1.127.83-1.78 1.128M12.7 23.558l-.772.534c-1.186.89-1.186.89-1.424.653-.534-.593-1.187-1.305-1.72-1.899-.12-.118-.12-.296.059-.475l.89-.712c1.009-.771 1.009-.771 1.246-.534.593.653 1.246 1.187 1.72 1.9.12.118.238.355 0 .533m-3.085 2.433l-1.009.95c-.712.712-.771.712-.95.534-.533-.594-1.186-1.306-1.72-1.9a.361.361 0 0 1 0-.474l.534-.475c1.246-1.127 1.246-1.127 1.484-.89.593.653 1.246 1.187 1.72 1.9 0-.06.12.118-.059.355m-2.789 2.79c-.415.474-.89 1.127-1.305 1.66l-.06.06s-.178.178-.356 0c-.534-.593-1.187-1.305-1.72-1.899-.12-.118-.12-.356 0-.534 1.483-1.958 1.483-1.958 1.72-1.661.594.652 1.246 1.186 1.721 1.899.06 0 .178.237 0 .474M4.57 31.985c-.296.593-.653 1.305-.89 1.899 0 0 0 .059-.06.059-.059.06-.118.178-.296.06-.534-.594-1.187-1.306-1.72-1.9-.12-.178-.179-.356-.06-.593.771-1.72.771-1.72.95-1.958.059-.06.177-.178.355-.06.594.653 1.187 1.187 1.721 1.9 0 .118.119.296 0 .593m10.682-13.886l.593-.356c1.305-.83 1.305-.83 1.543-.593.593.652 1.246 1.186 1.72 1.898a.23.23 0 0 1-.059.356l-1.008.653c-.831.534-.89.534-1.128.356-.534-.534-1.187-1.305-1.72-1.899-.12-.178-.06-.296.059-.415m3.085-1.958l.772-.534c.89-.653.89-.653 1.127-.416.594.653 1.246 1.187 1.721 1.9.06.118.119.237-.06.355l-.711.475c-1.01.712-1.01.712-1.247.475-.534-.534-1.186-1.306-1.72-1.84-.06-.178 0-.297.118-.415m2.73-2.018c.534-.475 1.246-1.068 1.78-1.602l.119-.119s.237-.178.415 0c.594.653 1.246 1.187 1.721 1.9.06.058.119.296-.06.474-2.076 1.899-2.076 1.899-2.373 1.661a48.81 48.81 0 0 1-1.72-1.84c-.06-.118-.06-.296.118-.474m3.264-3.086l.474-.534c1.128-1.424 1.128-1.424 1.365-1.246.594.653 1.246 1.187 1.721 1.9.06.058.119.296 0 .533-.297.356-.653.83-.95 1.187-.652.771-.711.83-.949.593a48.81 48.81 0 0 1-1.72-1.84c-.06-.237-.06-.415.059-.593m2.551-3.382c.178-.297.416-.653.594-.95.593-1.068.593-1.068.83-.83.594.653 1.247 1.187 1.78 1.899.06.118.12.296.06.534l-.415.771c-.772 1.246-.772 1.246-1.01 1.068A48.81 48.81 0 0 1 27 8.307c-.237-.296-.237-.474-.119-.652m1.78-3.264c.179-.474.475-1.127.653-1.602 0 0 0-.06.06-.06 0 0 .118-.177.296 0 1.959 2.078 1.959 2.078 1.84 2.374-.237.534-.534 1.484-.653 1.662-.06.06-.178.178-.356 0-.534-.594-1.246-1.306-1.72-1.899a.462.462 0 0 1-.12-.475M46.168 18.93c-.06.06-.119.118-.297 0-.534-.594-1.246-1.306-1.78-1.9-.119-.118-.178-.355-.178-.474.06-.297.178-.712.237-1.009L32.103 2.967c-.118.593-.178.772-.178.83 0 .06-.118.12-.296 0a48.81 48.81 0 0 1-1.721-1.839c-.119-.118-.178-.356-.178-.474.059-.238.118-.475.178-.772L29.255 0c-.297 1.662-1.068 3.68-2.374 5.993-.771 1.306-1.424 2.255-2.67 3.798-1.958 2.255-3.323 3.442-5.697 5.163-1.483 1.009-1.483 1.009-3.204 2.077-3.383 2.136-4.035 2.551-6.112 4.035-1.484 1.127-1.9 1.484-3.383 2.789C2.79 26.941.95 29.433 0 34.002l.593.653.297-1.365c.06-.06.178-.119.237-.178.535.594 1.247 1.365 1.78 1.958.179.356.179.356-.177 2.018.83.89 1.899 2.136 2.73 3.026.415.475.949 1.068 1.364 1.543.83.89 1.9 2.136 2.73 3.027.83.89 1.899 2.136 2.73 3.085a74.252 74.252 0 0 1 2.076 2.374l.356-1.424c.06-.06.179-.119.238-.178.534.593 1.305 1.365 1.84 2.017.177.356.177.356-.238 2.018l.771.89c.89-3.68 2.137-6.409 5.994-10.207 1.424-1.246 1.661-1.483 3.382-2.848 2.137-1.602 2.79-2.018 6.112-4.154 1.959-1.246 2.137-1.365 3.264-2.136 1.78-1.246 3.383-2.433 5.756-5.222 1.009-1.246 1.662-2.077 2.73-3.798 1.483-2.551 2.314-4.628 2.61-6.35l-.77-.83c-.179.771-.238.95-.238 1.009"></path></svg></g></svg>